# xmcd CD database file
#
# Track frame offsets:
#	150
#	20437
#	39205
#	59265
#
# Disc length: 1038 seconds
#
# Revision: 0
# Processed by: cddbd v1.5.1PL0 Copyright (c) Steve Scherf et al.
# Submitted via: CDex 1.51
#
DISCID=26040c04
DTITLE=八神純子 - たとえ叶わない夢でもこれでいい
DYEAR=1993
DGENRE=JPop
TTITLE0=たとえ叶わない夢でもこれでいい
TTITLE1=愛の炎 The Flame of Love
TTITLE2=たとえ叶わない夢でもこれでいい(カラオケ)
TTITLE3=愛の炎 The Flame of Love(カラオケ)
EXTD=YEAR: 1993
EXTT0=
EXTT1=
EXTT2=
EXTT3=
PLAYORDER=
